<svg xmlns="http://www.w3.org/2000/svg" version="1.1" xmlns:xlink="http://www.w3.org/1999/xlink" xmlns:svgjs="http://svgjs.com/svgjs" width="512" height="512" x="0" y="0" viewBox="0 0 474.384 474.384" style="enable-background:new 0 0 512 512" xml:space="preserve" class=""><g><path d="M467.592 238.353 407.51 111.398h25.078c5.771 0 10.449-4.678 10.449-10.449S438.359 90.5 432.588 90.5H281.6c-5.352-24.526-29.572-40.07-54.098-34.718A45.453 45.453 0 0 0 192.784 90.5H41.796c-5.771 0-10.449 4.678-10.449 10.449s4.678 10.449 10.449 10.449h25.078L6.792 238.353A10.449 10.449 0 0 0 0 247.757c-.001 45.589 36.956 82.548 82.545 82.549l.524-.002c45.731-.557 82.748-37.343 83.592-83.069a8.883 8.883 0 0 0-7.314-8.882L99.265 111.398h93.518a45.974 45.974 0 0 0 33.959 31.869v195.396c-35.531 4.743-61.964 35.209-61.649 71.053-.008 5.482 4.43 9.933 9.913 9.94.179 0 .358-.004.536-.014H298.84c5.475.289 10.147-3.916 10.435-9.39.009-.179.014-.357.014-.536.315-35.844-26.118-66.31-61.649-71.053V143.267a45.975 45.975 0 0 0 33.959-31.869h93.518l-60.082 126.955a9.404 9.404 0 0 0-7.314 9.404c-.001 45.589 36.956 82.548 82.545 82.549l.524-.002c45.646-.276 82.742-36.908 83.592-82.547a10.966 10.966 0 0 0-6.79-9.404zM83.069 309.406c-30.323.139-56.244-21.795-61.127-51.722h122.776c-5.693 29.673-31.437 51.272-61.649 51.722zm52.768-72.621H30.302l52.767-113.371 52.768 113.371zm151.51 161.96h-100.31c5.793-23.228 26.233-39.836 50.155-40.751 23.921.915 44.362 17.523 50.155 40.751zm-50.155-275.331c-13.561 0-24.555-10.994-24.555-24.555s10.994-24.555 24.555-24.555 24.555 10.994 24.555 24.555-10.994 24.555-24.555 24.555zm154.122 0 52.767 113.371H338.547l52.767-113.371zm-.522 185.992c-30.323.139-56.244-21.795-61.127-51.722h122.776c-5.693 29.673-31.438 51.272-61.649 51.722z" fill="#000000" data-original="#000000" class=""></path></g></svg>