<svg xmlns="http://www.w3.org/2000/svg" version="1.1" xmlns:xlink="http://www.w3.org/1999/xlink" xmlns:svgjs="http://svgjs.com/svgjs" width="512" height="512" x="0" y="0" viewBox="0 0 128 128" style="enable-background:new 0 0 512 512" xml:space="preserve" class=""><g transform="matrix(1.1299999999999994,0,0,1.1299999999999994,-8.319999999999965,-8.320975456237747)"><path d="M64 112a3.987 3.987 0 0 1-2.816-1.16l-44.385-44C11.125 61.217 8 53.734 8 45.775c0-7.961 3.125-15.443 8.799-21.068 11.691-11.586 30.711-11.592 42.402.002L64 29.465l4.799-4.756c11.693-11.59 30.713-11.594 42.402 0C116.875 30.332 120 37.814 120 45.775c0 7.959-3.125 15.441-8.799 21.066L66.816 110.84A3.987 3.987 0 0 1 64 112zM38 24.008c-5.639 0-11.277 2.127-15.568 6.381C18.283 34.5 16 39.965 16 45.775c0 5.809 2.283 11.273 6.432 15.383L64 102.367l41.568-41.207c4.148-4.111 6.432-9.576 6.432-15.385 0-5.811-2.283-11.275-6.432-15.385-8.582-8.512-22.555-8.51-31.137-.002l-7.615 7.549a3.999 3.999 0 0 1-5.633 0l-7.615-7.549c-4.291-4.253-9.929-6.38-15.568-6.38z" fill="#000000" data-original="#000000" class=""></path></g></svg>